<svg xmlns="http://www.w3.org/2000/svg" xmlns:xlink="http://www.w3.org/1999/xlink" width="132.242" height="132.242" viewBox="0 0 132.242 132.242"><defs><style>.a{fill:#fff;}.b{fill:#4267B2;}.c{filter:url(#a);}</style><filter id="a" x="0" y="0" width="132.242" height="132.242" filterUnits="userSpaceOnUse"><feOffset dy="3" input="SourceAlpha"/><feGaussianBlur stdDeviation="11" result="b"/><feFlood flood-opacity="0.071"/><feComposite operator="in" in2="b"/><feComposite in="SourceGraphic"/></filter></defs><g transform="translate(-585.288 -403)"><g class="c" transform="matrix(1, 0, 0, 1, 585.29, 403)"><circle class="a" cx="33.121" cy="33.121" r="33.121" transform="translate(33 30)"/></g><g transform="translate(637.506 448.539)"><path class="b" d="M226.064,265.178a2.2,2.2,0,1,0-3.116,3.116l3.3,3.3H208.64a2.2,2.2,0,1,0,0,4.407h17.612l-3.3,3.3a2.2,2.2,0,1,0,3.116,3.116l7.066-7.066a2.2,2.2,0,0,0,0-3.116Z" transform="translate(-206.436 -247.998)"/><path class="b" d="M224.146,185.017a2.2,2.2,0,0,1,3.116,3.116l-3.3,3.3h17.612a2.2,2.2,0,0,1,0,4.407H223.959l3.3,3.3a2.2,2.2,0,1,1-3.116,3.116L217.08,195.2a2.2,2.2,0,0,1,0-3.116Z" transform="translate(-216.166 -184.371)"/></g></g></svg>